<svg xmlns="http://www.w3.org/2000/svg" viewBox="0 0 16 12.71"><defs><style>.cls-1{fill:#4b72b3;}</style></defs><g id="Layer_2" data-name="Layer 2"><g id="Layer_1-2" data-name="Layer 1"><path class="cls-1" d="M3.35,8.88c-.18-.15-.35-.32-.52-.48A13.42,13.42,0,0,1,1.37,6.64c-.08-.1-.14-.2-.2-.29a13.57,13.57,0,0,1,1.66-2A7.46,7.46,0,0,1,8,1.85a6.32,6.32,0,0,1,2,.36l.77-.77A7.23,7.23,0,0,0,8,.85c-5,0-8,5.5-8,5.5A13.71,13.71,0,0,0,2.64,9.59Z"/><path class="cls-1" d="M5.52,6.71a2.81,2.81,0,0,1,0-.71A2.5,2.5,0,0,1,8.35,3.88l.83-.82a3.42,3.42,0,0,0-2.36,0A3.5,3.5,0,0,0,4.7,7.53Z"/><path class="cls-1" d="M12.65,3.83l.71-.71A13.56,13.56,0,0,1,16,6.35s-3,5.5-8,5.5a7,7,0,0,1-2.79-.58L6,10.49a5.84,5.84,0,0,0,2,.36A7.45,7.45,0,0,0,13.17,8.4a13.42,13.42,0,0,0,1.46-1.76l.2-.29a13.57,13.57,0,0,0-1.66-2l-.52-.49ZM1.65,12l12-12,.7.71-12,12Z"/></g></g></svg>