<?xml version="1.0" encoding="utf-8"?>
<!-- Generator: Adobe Illustrator 25.0.0, SVG Export Plug-In . SVG Version: 6.00 Build 0)  -->
<svg version="1.1" id="Layer_1" xmlns="http://www.w3.org/2000/svg" xmlns:xlink="http://www.w3.org/1999/xlink" x="0px" y="0px"
	 viewBox="0 0 450.4 171.9" style="enable-background:new 0 0 450.4 171.9;" xml:space="preserve">
<style type="text/css">
	.st0{fill-rule:evenodd;clip-rule:evenodd;fill:#2555A3;}
</style>
<g id="Layer_2_1_">
	<g id="Layer_1-2">
		<path class="st0" d="M199,34.8c3.8,1.5,7.4,3.6,10.4,6.4c0.1-1.9,0.5-3.8,1.3-5.6c0,0-2-3.8-7.9-7.8c-4.1-2.7-8.8-4.6-13.6-5.6
			c-1.5,3.3-2.5,6.7-3.1,10.3C186.1,32.5,191.4,31.9,199,34.8z"/>
		<path class="st0" d="M203.5,22.1c3.5,3.3,6.3,7.2,8.2,11.6c1.1-1.8,2.6-3.3,4.3-4.5c-1.4-4.3-3.4-8.4-5.8-12.1
			c-2.7-3.6-5.9-6.8-9.4-9.4c-2.8,2.2-5.4,4.8-7.5,7.7C197,17,200.5,19.3,203.5,22.1z"/>
		<g>
			<path class="st0" d="M214.1,14.9c1.7,4.3,2.8,8.9,3.4,13.5c1.9-1,4-1.6,6.2-1.8c0-4.5-0.5-9.1-1.4-13.5c-0.9-4.4-2.1-8.8-3.7-13
				c-3.5,0.5-6.9,1.5-10.1,3C208.5,3,212.2,10.1,214.1,14.9z"/>
		</g>
		<path class="st0" d="M249.9,34.8c-3.8,1.5-7.4,3.6-10.4,6.4c-0.1-1.9-0.5-3.8-1.3-5.6c0,0,2-3.8,7.9-7.8c4.1-2.7,8.8-4.6,13.6-5.6
			c1.5,3.3,2.5,6.7,3.1,10.3C262.8,32.5,257.5,31.9,249.9,34.8z"/>
		<path class="st0" d="M245.4,22.1c-3.5,3.3-6.3,7.2-8.1,11.6c-1.1-1.8-2.6-3.3-4.3-4.5c1.4-4.3,3.4-8.4,5.8-12.1
			c2.7-3.6,5.9-6.7,9.4-9.4c2.8,2.2,5.4,4.8,7.5,7.7C251.9,17,248.4,19.3,245.4,22.1z"/>
		<g>
			<path class="st0" d="M234.8,14.9c-1.7,4.3-2.8,8.9-3.4,13.5c-1.9-1-4-1.6-6.2-1.8c0-4.5,0.5-9.1,1.4-13.5c0.9-4.4,2.1-8.8,3.7-13
				c3.5,0.5,6.9,1.5,10.1,3C240.4,3,236.7,10.1,234.8,14.9z"/>
		</g>
		<path class="st0" d="M204.2,58.3c4.7-2.1,9.8-3.1,15-2.8c-2.7-1-5-2.7-6.7-4.9c-3.9-0.4-7.9-0.4-11.8,0.2
			c-7.8,1.6-11.2,4.3-11.2,4.3c1.6,3.2,3.6,6.2,6,8.9C198.1,61.7,201.1,59.8,204.2,58.3z"/>
		<path class="st0" d="M198.4,47.1c4.4-0.3,8.7,0.3,12.9,1.6c-1-1.7-1.6-3.7-1.8-5.6c0,0-6.1-3.5-11.6-4.2c-7.7-1-12.2,0.5-12.2,0.5
			c0.1,3.6,0.7,7.1,1.8,10.5C190.9,48.2,194.6,47.3,198.4,47.1z"/>
		<path class="st0" d="M224.4,64.2c10.9,0,15.7,9.4,15.7,9.4c3.4-1.5,6.5-3.5,9.4-5.9c0,0-9.2-11.6-25-11.6s-25,11.6-25,11.6
			c2.8,2.4,6,4.4,9.4,5.9C208.8,73.6,213.5,64.2,224.4,64.2z"/>
		<path class="st0" d="M244.6,58.3c-4.7-2.1-9.8-3.1-15-2.8c2.7-1,5-2.7,6.7-4.9c3.9-0.4,7.9-0.4,11.8,0.2
			c7.8,1.6,11.2,4.3,11.2,4.3c-1.6,3.2-3.6,6.2-6,8.9C250.8,61.7,247.8,59.8,244.6,58.3z"/>
		<path class="st0" d="M250.5,47.1c-4.4-0.3-8.7,0.3-12.9,1.6c1-1.7,1.6-3.7,1.8-5.6c0,0,6.1-3.5,11.6-4.2c7.7-1,12.2,0.5,12.2,0.5
			c-0.1,3.6-0.7,7.1-1.8,10.5C258,48.2,254.3,47.3,250.5,47.1z"/>
		<path class="st0" d="M71.3,88.2v13.8h5.8c6.2,0,8.8-2.4,8.8-6.9s-2.6-6.9-8.8-6.9H71.3z M71.3,114.4h4v3.2H63.7v-3.2h4V88.1h-4V85
			h13.4c7.4,0,12.4,3.2,12.4,10.2s-5,10.2-12.4,10.2h-5.8V114.4z"/>
		<path class="st0" d="M111.2,104.6c0-4.3-3.5-7.7-7.7-7.7c-4.3,0-7.7,3.5-7.7,7.7c0,0,0,0,0,0H111.2z M114,110.9
			c-1,4.1-4.8,7.2-10.5,7.2c-7,0-11.3-4.4-11.3-12.2c0-7.4,4.4-12.2,11.3-12.2c7.4,0,12.1,5.7,11.1,14H95.8c0.2,4.1,3.6,7.3,7.7,7.2
			c3.2,0,5.6-1.3,6.8-4L114,110.9z"/>
		<path class="st0" d="M126.5,114.5h3.7v3h-10.9v-3h3.7V97.2h-3.7v-3h6.9v3.3c1.9-3.3,5.9-4.7,9.4-3.3v3.4c-5.5-1.6-9.1,1.5-9.1,6.8
			V114.5z"/>
		<path class="st0" d="M162.9,114.5h3.7v3h-10.9v-3h3.7v-9.8c0-5.5-3.3-7.8-6.9-7.8s-6.6,2.5-6.6,8v9.6h3.7v3h-10.9v-3h3.7V97.2
			h-3.7v-3h6.9v3.3c1.7-2.5,4.6-3.9,7.6-3.8c5.1,0,9.7,2.9,9.7,10.9V114.5z"/>
		<path class="st0" d="M181.1,114.9c4.5,0,7.9-3.2,7.9-9s-3.4-9-7.9-9s-7.9,3.2-7.9,9S176.6,114.9,181.1,114.9z M181.1,93.7
			c7.2,0,11.4,5.1,11.4,12.2s-4.2,12.2-11.4,12.2s-11.4-5.1-11.4-12.2S173.9,93.7,181.1,93.7z"/>
		<path class="st0" d="M200.1,105.8c0,5.9,3.5,9,7.8,9s7.8-3.1,7.8-9s-3.5-9-7.8-9S200.1,99.9,200.1,105.8z M219.1,114.5h3.7v3h-7
			v-3.3c-1.9,2.5-5,3.9-8.1,3.8c-6.6,0-11-5.2-11-12.2s4.3-12.2,11-12.2c3.5,0,6.6,1.6,8,3.8v-9.6h-3.7v-3h7.1L219.1,114.5z"/>
		<path class="st0" d="M245.9,88.2v12.1h7.6c4.9,0,7-2.4,7-6s-2.1-6-7-6L245.9,88.2z M238.3,84.9h15.3c6.1,0,10.6,3.3,10.6,9.4
			c0,5.2-3.3,8.3-8,9.2l5.3,10.9h4.2v3.2H259l-6.7-13.9H246v10.7h3.6v3.2h-11.3v-3.2h4V88.1h-4V84.9z"/>
		<g>
			<path class="st0" d="M273.2,89.3h3.9v-4.4h-3.9V89.3z M277.1,114.5h3.7v3H270v-3h3.7V97.2H270v-3h7.2L277.1,114.5z"/>
			<path class="st0" d="M306.7,109c-1.3,5.3-4.9,9-11.3,9c-7.2,0-11.4-5.1-11.4-12.2s4.2-12.2,11.4-12.2c3.1-0.1,6,1.3,7.7,3.8v-3.3
				h3.3v8.5h-3.8c-1-3.2-3.1-5.9-7.3-5.9c-4.5,0-7.9,3.2-7.9,9s3.4,9,7.9,9c3.6,0.1,6.8-2.4,7.7-5.9L306.7,109z"/>
			<path class="st0" d="M314.3,105.9c0,5.9,3.5,9,7.8,9s7.8-3.1,7.8-9s-3.5-9-7.8-9S314.3,99.9,314.3,105.9z M329.8,94.2h7v3h-3.7
				v17.3h3.7v3h-7v-3.3c-1.4,2.3-4.5,3.8-8,3.8c-6.6,0-11-5.2-11-12.2s4.3-12.2,11-12.2c3.5,0,6.6,1.6,8,3.8V94.2z"/>
			<path class="st0" d="M349,114.5h3.7v3h-10.8v-3h3.7V97.2h-3.7v-3h6.9v3.3c1.9-3.3,5.9-4.7,9.4-3.3v3.4c-5.5-1.6-9.1,1.5-9.1,6.8
				L349,114.5z"/>
			<path class="st0" d="M363.4,105.8c0,5.9,3.5,9,7.8,9s7.8-3.1,7.8-9s-3.5-9-7.8-9S363.4,99.9,363.4,105.8z M382.4,114.5h3.7v3h-7
				v-3.3c-1.9,2.5-5,3.9-8.1,3.8c-6.6,0-11-5.2-11-12.2s4.3-12.2,11-12.2c3.5,0,6.6,1.6,8,3.8v-9.6h-3.7v-3h7.2L382.4,114.5z"/>
			<path class="st0" d="M24,167.6l-6.8,1.8c-2.3,0.5-4.6,0.8-7,0.8c-6.8,0-10.2-2.5-10.2-7.4c0-2.4,1.1-5.1,3.3-8.3
				c1.7-2.5,3.8-4.7,6.2-6.6c2.8-2.2,5.3-3.2,7.4-3.2c3.1,0,4.7,1.5,4.7,4.4c0,0.5-0.2,2.1-0.5,4.8c-0.5-0.1-1-0.2-1.5-0.3
				c-0.4-0.3-0.7-0.7-0.9-1.1c0.3-1.1,0.5-2.2,0.5-3.3c0-1.4-0.8-2.2-2.4-2.2c-2.2,0-4.5,1.1-7.1,3.2c-2,1.7-3.8,3.8-5.2,6.1
				c-1.4,2-2.2,4.4-2.4,6.9c0,1.9,1.1,3.7,2.9,4.5c1.7,0.9,3.6,1.3,5.5,1.2c1.4,0,2.9-0.1,4.3-0.3c0.6,0,2-0.2,4.3-0.6
				c0.8-0.2,1.5-0.4,2.2-0.6c0.7-0.3,1.4-0.5,2.2-0.7C23.8,166.9,23.9,167.2,24,167.6z"/>
			<path class="st0" d="M41,160.9l-6-2c-1.5,0-2.8,1-3.9,3c-0.8,1.6-1.5,3.3-2.1,5c-1,2.6-2.5,3.9-4.7,3.9c0.4-1.6,1-3.1,2-4.4
				c1-1.4,1.8-2.9,2.4-4.5c0.3-1.3,0.4-2.6,0.4-3.9c0-0.8,0.2-1.6,0.5-2.4c0.5-1.1,1-1.8,1.6-1.8H32l0.4,2.6c0.2,0.7,0.8,1,1.8,1
				h1.3H36C39,157.5,40.6,158.6,41,160.9z"/>
			<path class="st0" d="M56.8,152.1c-1.6,1.6-2.6,2.4-3,2.4c-0.4,0-0.7-0.1-1-0.3c-0.1-0.1-0.4-0.2-0.9-0.5l0.3-0.6
				c0.8-1.2,1.8-2.4,2.8-3.4l1.7-1.8c0.5-0.6,1.3-1,2.1-1.1c0.8,0,1.2,0.4,1.2,1.1S58.9,150,56.8,152.1z M55.9,159.8
				c-0.7-0.8-1.7-1.3-2.8-1.2c-0.8,0-1.5,0.2-2.2,0.5l-2,1.1c0.6,1.2,1.9,1.9,3.2,1.8C53.7,162,55.1,161.2,55.9,159.8z M59.9,167.2
				c-0.8,0.9-2.6,1.5-5.5,1.9c-2.1,0.3-4.1,0.5-6.2,0.4c-4.3,0-6.5-1.2-6.5-3.7c0-3.1,2.2-5.7,6.8-7.9c1.6-0.8,3.2-1.4,4.9-1.9
				c1.6,0.4,2.7,0.7,3.3,0.9c1.2,0.4,1.7,1.3,1.7,2.9c0,1.4-0.9,2.4-2.6,3.2c-1.4,0.7-2.9,1-4.5,1c-2.4,0-4.1-0.4-5.1-1.1
				c-1.3,0.6-1.9,1.4-1.9,2.4c0,1.7,1.6,2.6,4.7,2.6c1.1,0,2.5-0.1,4-0.2C56.7,167.4,59,167.2,59.9,167.2L59.9,167.2z"/>
			<path class="st0" d="M79.8,170.9v-0.1h0.1v-0.1h-0.1v-0.2h0.2v0.1h-0.1v0.1h0.1v0.3H79.8z M78.5,157c0-0.9-0.8-1.4-2.4-1.4
				c-2.1-0.1-4.1,0.5-5.8,1.6c-1.6,1.1-3.1,2.5-4.5,3.9c-2,2.1-2.9,3.7-2.9,4.9c0,0.7,0.3,1.3,0.9,1.7c0.6,0.3,1.3,0.5,2,0.5
				c2.2,0,4.2-0.8,5.8-2.3c0.4-0.4,1.5-1.9,3.3-4.4c1.1-1.6,2.2-2.4,3.2-2.4C78.3,158.4,78.5,157.7,78.5,157z M79.9,170.1
				c-0.6,1.2-1.2,1.8-2,1.8S76,171.3,75,170c-0.8-1-1.5-2-2-3.2c-2.2,1-3.6,1.7-4.4,2c-1.4,0.7-3,1.1-4.6,1.2c-2,0-3-1-3-3.1
				c0-3.3,1.8-6.3,5.4-8.9c1.5-1,3.1-1.9,4.8-2.7c2.4-1.1,4.1-1.7,5.1-1.7c0.8,0,1.5,0.5,2,1.1c0.6,0.6,0.9,1.4,0.9,2.2
				c-0.2,2-0.7,3.9-1.7,5.6c-0.7,1.3-1.3,2.6-1.7,4c-0.1,0.9,0.1,1.8,0.6,2.5C76.7,169.4,77.8,169.7,79.9,170.1L79.9,170.1z"/>
			<path class="st0" d="M96.6,146.6c0,0.8-0.3,1.5-0.7,2.2c-0.2,0.3-1,1.4-2.3,3.3c0.7,0.4,1.3,0.9,2,1.3c0.7,0.4,1.1,1.2,1,2v0.4
				l-1.8-0.5c-0.6-0.2-1.1-0.3-1.7-0.3c-1.4,0-3.4,1.5-6.1,4.4s-4,5.2-4,6.7c0,1.3,1.1,2.2,3.4,2.7c1.6,0.4,3.2,0.6,4.9,0.5
				c0.7,0,1.4,0,2.1-0.1c0,0.1,0.1,0.4,0.3,0.7c-1.5,0.6-3.2,0.9-4.8,0.9c-5.8,0-8.7-1.4-8.7-4.2c0-1.7,1.4-4.1,4.3-7.4l3.3-3.7
				l-1.3-0.1c-0.8,0-1.6,0.2-2.3,0.5c-1.1,0.4-2.2,0.8-3.3,1c-0.4,0-0.9-0.1-1.2-0.4c-0.3-0.2-0.5-0.6-0.6-1c0-1,1.1-1.5,3.4-1.5
				c0.2,0,0.6,0,1,0h1c1.7,0.1,3.3-0.3,4.8-1c1.4-0.8,2.6-2,3.4-3.5c0.3-0.6,1.1-2.2,2.3-4.8c0.4,0.1,0.8,0.3,1,0.7
				C96.4,145.7,96.6,146.1,96.6,146.6z"/>
			<path class="st0" d="M111.3,159.8c-0.7-0.8-1.7-1.3-2.8-1.2c-0.7,0-1.5,0.2-2.2,0.5l-2,1.1c0.6,1.1,1.9,1.8,3.2,1.8
				C109.1,162,110.5,161.2,111.3,159.8z M115.3,167.2c-0.8,0.8-2.6,1.5-5.5,1.9c-2.1,0.3-4.1,0.5-6.2,0.5c-4.3,0-6.5-1.2-6.5-3.8
				c0-3.1,2.3-5.7,6.8-7.9c1.6-0.8,3.2-1.4,4.9-1.9c1.6,0.4,2.7,0.7,3.3,0.8c1.2,0.4,1.8,1.4,1.8,2.9c0,1.4-0.9,2.4-2.6,3.2
				c-1.4,0.7-2.9,1-4.5,1c-2.4,0-4.1-0.4-5.1-1.1c-1.3,0.6-1.9,1.4-1.9,2.4c0,1.7,1.6,2.6,4.7,2.6c1.2,0,2.5-0.1,4-0.2
				C112,167.4,114.3,167.2,115.3,167.2L115.3,167.2z"/>
			<path class="st0" d="M142.1,154.2c0,0.9-0.6,2.2-1.9,3.7c-0.7,0.8-2,2.4-3.8,4.6c-1.2,1.3-1.9,2.9-2,4.7c0,0.8,0.5,1.1,1.4,1.1
				c0.2,0,0.4,0,0.6-0.1h0.4c0.4,0,0.8,0.1,1.2,0.2l0.5,0.6l-1.9,0.5c-0.6,0.2-1.3,0.3-1.9,0.3c-0.8,0.1-1.6-0.2-2.2-0.8
				c-0.4-0.7-0.6-1.5-0.5-2.3v-0.9c0-0.3,0-0.6,0-0.9c-1.8,1.1-3,1.9-3.8,2.3c-3.2,1.8-6,2.6-8.3,2.6c-2.6,0-3.9-0.6-3.9-1.9
				c0-0.9,1.2-2.8,3.6-5.7c1.6-2,3.2-3.8,4.8-5.4c2-2.1,3.4-3.1,4-3.1c0.4,0,0.7,0.2,0.7,0.6c0,0.1,0,0.1,0,0.2
				c0,0.7-0.9,2.1-2.8,4.2c-0.8,0.9-2,2.3-3.7,4.1c-1.3,1.4-2.4,2.9-3.2,4.6l0.4,0.4c0.2,0,0.4,0,0.8,0h0.8c0.9,0,1.7-0.2,2.6-0.5
				l2.4-1c2.2-0.8,4.3-2,6.2-3.4c1.2-1.1,2.2-2.2,3.1-3.6c0.6-0.8,1.6-2.2,3.1-4.3c1-1.4,1.8-2.1,2.3-2.1c0.4,0,0.7,0.2,1,0.4
				L142.1,154.2z"/>
			<path class="st0" d="M158.8,160.9l-6.1-2c-1.5,0-2.8,1-3.9,3c-0.8,1.6-1.5,3.2-2.1,4.9c-1,2.6-2.5,3.9-4.6,3.9
				c0.3-1.6,1-3.1,2-4.4c1-1.4,1.8-2.9,2.3-4.4c0.3-1.3,0.4-2.6,0.4-3.9c0-0.8,0.2-1.6,0.6-2.4c0.5-1.1,1-1.8,1.6-1.8h0.7l0.4,2.6
				c0.2,0.7,0.8,1,1.8,1h1.3h0.6C156.8,157.4,158.5,158.6,158.8,160.9z"/>
			<path class="st0" d="M182.8,151.3c-0.2,1.2-1.2,2-2.9,2.5c-1,0.3-2.8,0.7-5.4,1.4c-1.8,0.4-3.5,1.2-4.8,2.4
				c3.2,0.8,5.3,1.3,6.1,1.6c2.8,1.1,4.2,2.3,4.2,3.7c0,2-1.7,3.9-5.1,5.6c-2.4,1.4-5.1,2.1-7.8,2.3c-1.9,0-3.7-0.8-5-2.1
				c-1.5-1.2-2.3-3-2.3-4.9v-0.6c0.7,0.3,1.8,1.3,3.1,3.2c1.3,1.8,2.4,2.6,3.4,2.6c2.2-0.1,4.4-0.7,6.5-1.7c3.1-1.3,4.6-2.7,4.6-4.1
				c0-1-0.9-1.8-2.7-2.3c-0.1,0-2-0.5-5.8-1.5c-2.1-0.5-3.4-1.2-4.1-1.9c1.3-1.2,2.9-2.1,4.6-2.7c1.5-0.6,3.6-1.4,6.6-2.2
				c3.1-1,5-1.5,5.6-1.7C182,151.1,182.4,151.3,182.8,151.3z"/>
			<path class="st0" d="M212,162.5c0-2-0.9-3-2.7-3c-1.7,0.2-3.4,0.8-4.8,1.8c-2,1.3-3,2.6-3,3.8s1.7,2,5.1,2
				C210.2,167,212,165.5,212,162.5z M221.2,146.1c-0.4,1.8-1,3.5-1.8,5.2l-3,7.1c-0.9,2-1.7,4.1-2.4,6.2c1.2,0,1.9,0.2,2.1,0.5
				c-0.4,0.8-1,1.6-1.7,2.3c-1,1-1.8,1.5-2.3,1.5c-0.6,0-1.2-0.1-1.8-0.1c-0.6-0.1-1.2-0.1-1.8-0.1c-0.5,0-1.1,0-2.1,0.1
				s-1.6,0.1-2,0.1c-3.4,0-5.1-0.9-5.1-2.8c0-2.3,1.2-4.3,3.6-6.2c1.9-1.6,4.4-2.6,6.9-2.7c0.7,0,1.5,0.2,2.1,0.5l1.9,1l0.3-0.4
				v-0.8l0.4-0.4c-0.1-0.8,0.6-3,2.1-6.7c1.5-3.7,2.5-5.6,2.8-5.6c0.5,0,1,0.2,1.4,0.5L221.2,146.1z"/>
			<path class="st0" d="M233.2,159.8c-0.7-0.8-1.7-1.3-2.8-1.2c-0.8,0-1.5,0.2-2.2,0.5l-2,1.1c0.6,1.1,1.9,1.8,3.2,1.8
				C231,162,232.4,161.2,233.2,159.8z M237.2,167.2c-0.8,0.8-2.6,1.5-5.5,1.9c-2.1,0.3-4.1,0.5-6.2,0.5c-4.3,0-6.5-1.2-6.5-3.8
				c0-3.1,2.3-5.7,6.8-7.9c1.6-0.8,3.2-1.4,4.9-1.9c1.6,0.4,2.7,0.7,3.3,0.8c1.1,0.4,1.7,1.4,1.7,2.9c0,1.4-0.9,2.4-2.6,3.2
				c-1.4,0.7-2.9,1-4.5,1c-2.4,0-4.1-0.4-5.1-1.1c-1.3,0.6-1.9,1.4-1.9,2.4c0,1.7,1.6,2.6,4.7,2.6c1.2,0,2.5-0.1,4-0.2
				C234,167.4,236.2,167.2,237.2,167.2L237.2,167.2z"/>
			<path class="st0" d="M278,167.3c-2.1,1.5-4.5,2.4-7.1,2.8c-2.5,0.5-5.1,0.8-7.8,0.8c-5.9,0-8.9-1.8-8.9-5.4
				c0-3.9,3.7-7.4,11-10.6c2.3-1,4.7-1.8,7.2-2.4c0.8,0.3,1.3,1.1,1.4,1.9c-0.1,1.2-0.4,2.4-1,3.5c-0.7,1.6-1.5,2.5-2.3,2.5
				c-0.4,0-0.8-0.1-1.1-0.4c-0.3-0.2-0.6-0.5-0.6-0.9c0-0.3,0.7-1.4,2.1-3.3c-0.4-0.1-0.9-0.1-1.3-0.2c-2.3,0-5,1-8.1,2.9
				c-3.4,2.1-5.1,4.3-5.1,6.5c0,1.6,0.9,3,2.4,3.6c1.4,0.6,3,0.9,4.6,0.9c3.6,0.1,7.2-0.3,10.7-1.1l1.2-0.5c0.4-0.2,0.8-0.3,1.2-0.3
				c0.1,0,0.2,0,0.3,0l0.4-0.4h0.7L278,167.3z"/>
			<path class="st0" d="M299.9,162.3c0-1.3-0.7-2.4-1.9-2.9c-1.1-0.5-2.4-0.8-3.6-0.8c-2.5,0.1-5,0.7-7.2,1.9
				c-2.3,1-4.3,2.7-5.6,4.8c1.6,1.7,3.9,2.7,6.3,2.7c2.5,0,4.9-0.4,7.2-1.3C298.3,165.7,299.9,164.2,299.9,162.3z M302,162.6
				c0,2.4-1.8,4.3-5.2,5.7c-2.7,1-5.5,1.6-8.4,1.5c-6.1,0-9.2-1.5-9.2-4.6c0-2.2,2-4.3,6-6.3c3.6-1.8,6.6-2.7,9-2.7
				c1.9-0.1,3.8,0.5,5.4,1.5C301.1,158.8,302.1,160.6,302,162.6L302,162.6z"/>
			<path class="st0" d="M322.5,160.5c-0.1,1.4-0.6,2.7-1.3,3.9c-0.6,1.3-1.4,2.5-2.4,3.6c0,0.3,0.1,0.5,0.1,0.6
				c0.1,0.2,0.2,0.4,0.3,0.6c-0.1,0.7-0.8,1.2-1.5,1.2c-0.4,0-0.8-0.1-1.2-0.4c-0.3-0.2-0.5-0.6-0.5-1c0-0.7,0.7-2,2-3.8
				c1.3-1.8,2-3.1,2-3.7c0.1-1-0.5-1.9-1.5-2c-0.2,0-0.4,0-0.5,0c-2,0.1-3.8,1-5.2,2.5c-0.9,0.9-2.4,2.5-4.7,4.8
				c-1.4,1.6-3.2,2.7-5.2,3.2v-0.4l-0.3-0.4c0-1.4,1.2-3.5,3.8-6.5c1-1.2,2-2.4,2.8-3.8c0.2-0.7,0.5-1.3,0.8-2
				c0.2-0.4,0.4-0.8,0.7-1.1c0.3-0.2,0.7-0.3,1.1-0.3c0.7,0,1.1,0.4,1.1,1.1c0,0.4-0.1,0.8-0.2,1.2c0,0.1-0.3,0.8-0.9,2.1
				c2.2-1.2,3.5-1.8,3.8-2c1.2-0.7,2.5-1.1,3.9-1.3c0.9,0,1.8,0.4,2.4,1.2C322.2,158.5,322.5,159.5,322.5,160.5z"/>
			<path class="st0" d="M340.3,151.3c0,1.8-1.2,3.7-3.6,5.9l-5.5,4.8c-0.3,0.5-0.5,1-0.7,1.6l-1.4,3.4c-0.9,2-2,3.1-3.4,3.1
				c-1.3,0-2-1.1-2-3.2c0-0.4,0-0.9,0.1-1.5s0.1-1.3,0.1-1.5c-0.1-1.2-0.3-2.4-0.8-3.5c-0.4-1.1-0.7-2.3-0.8-3.4
				c0-0.5,0.1-1,0.4-1.4c0.2-0.4,0.7-0.7,1.1-0.7c0.9,0,1.5,1.5,2,4.4l1,5.8c0.6-0.7,2-2.2,4-4.6c1-1.1,1.8-2,2.5-2.8l6.2-6.3
				L340.3,151.3z"/>
			<path class="st0" d="M347.2,148.1c0,0.9-0.6,1.4-1.9,1.4s-1.7-0.5-1.7-1.4c0-0.7,0.2-1.3,0.5-1.9c0.2-0.6,0.4-1.2,0.5-1.9
				c0.6,0.6,1.1,1.4,1.5,2.2c0.2,0.2,0.5,0.5,0.7,0.7C347.1,147.4,347.2,147.7,347.2,148.1z M343.6,158.7c-0.6,2.1-1.3,4.2-2.1,6.1
				c-0.2,0.5-0.5,1.1-0.8,2c-0.2,0.6-0.6,1.1-1.2,1.3c-0.6,0.1-1.1,0.2-1.7,0.2c0-0.3-0.1-0.5-0.1-0.8c-0.1-0.3-0.1-0.5-0.1-0.8
				c0-0.7,0.3-1.3,0.6-1.9c0.4-0.6,0.7-1.1,1-1.7c0.2-0.7,0.6-1.8,1.2-3.4c0.4-1.1,1.2-2.1,2.1-2.9
				C343.2,157.6,343.6,158.2,343.6,158.7L343.6,158.7z"/>
			<path class="st0" d="M365.4,151.3c0,1.8-1.2,3.7-3.6,5.9l-5.5,4.8c-0.3,0.5-0.5,1-0.7,1.6l-1.4,3.4c-0.9,2-2,3.1-3.4,3.1
				c-1.3,0-2-1.1-2-3.2c0-0.4,0-0.9,0.1-1.5s0.1-1.3,0.1-1.5c-0.1-1.2-0.3-2.4-0.8-3.5c-0.4-1.1-0.7-2.3-0.8-3.4
				c0-0.5,0.1-1,0.4-1.4c0.2-0.4,0.6-0.7,1.1-0.7c0.8,0,1.5,1.5,2,4.4l1,5.8c0.6-0.7,2-2.2,4-4.6c1-1.1,1.8-2,2.5-2.8l6.2-6.3
				L365.4,151.3z"/>
			<path class="st0" d="M372.3,148.1c0,0.9-0.6,1.4-1.9,1.4s-1.7-0.5-1.7-1.4c0-0.7,0.2-1.3,0.5-1.9c0.2-0.6,0.4-1.2,0.5-1.9
				c0.6,0.6,1.1,1.4,1.5,2.2c0.2,0.2,0.4,0.5,0.7,0.7C372.1,147.4,372.3,147.7,372.3,148.1L372.3,148.1z M368.7,158.7
				c-0.6,2.1-1.3,4.2-2.1,6.1l-0.8,2c-0.2,0.6-0.6,1.1-1.2,1.3c-0.6,0.1-1.1,0.2-1.7,0.2c0-0.3,0-0.5-0.1-0.8
				c-0.1-0.3-0.1-0.5-0.1-0.8c0-0.7,0.3-1.3,0.6-1.9c0.4-0.6,0.7-1.1,1-1.7c0.2-0.6,0.6-1.8,1.2-3.4c0.4-1.1,1.1-2.1,2.1-2.9
				C368.3,157.7,368.7,158.2,368.7,158.7z"/>
			<path class="st0" d="M391.7,170.9v-0.1h0.1v-0.1h-0.1v-0.2h0.2v0.1h-0.1v0.1h0.1v0.3H391.7z M390.5,157c0-0.9-0.8-1.4-2.4-1.4
				c-2.1-0.1-4.1,0.5-5.8,1.6c-1.6,1.1-3.1,2.5-4.5,3.9c-2,2.1-2.9,3.7-2.9,4.9c0,0.7,0.3,1.3,0.9,1.7c0.6,0.3,1.3,0.5,2,0.5
				c2.2,0,4.2-0.8,5.8-2.3c0.4-0.4,1.5-1.9,3.3-4.4c1.1-1.6,2.2-2.4,3.2-2.4C390.3,158.4,390.5,157.7,390.5,157L390.5,157z
				 M391.9,170.1c-0.6,1.2-1.2,1.8-2,1.8s-1.8-0.6-2.9-1.9c-0.8-1-1.5-2-2-3.2c-2.2,1-3.6,1.7-4.4,2c-1.4,0.7-3,1.1-4.5,1.2
				c-2,0-3-1-3-3.1c0-3.3,1.8-6.3,5.4-8.9c1.5-1,3.1-1.9,4.8-2.7c2.4-1.1,4.1-1.7,5.1-1.7c0.8,0,1.5,0.5,2,1.1
				c0.6,0.6,0.9,1.4,0.9,2.2c-0.2,2-0.7,3.9-1.7,5.6c-0.7,1.3-1.3,2.6-1.7,4c-0.1,0.9,0.1,1.8,0.6,2.5c0.3,0.4,1.5,0.8,3.6,1.1
				L391.9,170.1z"/>
			<path class="st0" d="M406.3,144.9c0,0.1-0.9,1.8-2.6,5l-5,9.2c-2.1,3.9-3.2,6.1-3.4,6.7l-0.8,2.5c-0.4,1-1,1.5-1.7,1.5
				c-0.4,0-0.9-0.1-1.3-0.3l-0.4-0.7c0.7-2.2,1.6-4.2,2.9-6.1l4.9-8.1c1.6-2.4,2.8-5.1,3.8-7.8c0.1-0.4,0.3-1.2,0.6-2.3
				c0.3-0.7,0.8-1.4,1.5-1.7c0.4,0.1,0.8,0.4,1.1,0.8C406.2,144,406.3,144.4,406.3,144.9L406.3,144.9z"/>
			<path class="st0" d="M413.9,148.1c0,0.9-0.6,1.4-1.9,1.4s-1.7-0.5-1.7-1.4c0-0.7,0.2-1.3,0.5-1.9c0.2-0.6,0.4-1.2,0.5-1.9
				c0.6,0.7,1.1,1.4,1.5,2.2c0.2,0.2,0.4,0.5,0.7,0.7C413.7,147.4,413.9,147.7,413.9,148.1z M410.2,158.7c-0.6,2.1-1.3,4.1-2.2,6.1
				c-0.2,0.5-0.4,1.1-0.8,2c-0.2,0.6-0.6,1.1-1.2,1.3c-0.6,0.1-1.2,0.2-1.7,0.2c0-0.3,0-0.5-0.1-0.8c-0.1-0.3-0.1-0.5-0.1-0.8
				c0-0.7,0.3-1.3,0.6-1.9c0.4-0.6,0.7-1.1,1-1.7c0.2-0.6,0.6-1.8,1.2-3.4c0.4-1.1,1.1-2.1,2.1-2.9
				C409.9,157.6,410.3,158.2,410.2,158.7L410.2,158.7z"/>
			<path class="st0" d="M431.7,146.6c0,0.8-0.3,1.5-0.6,2.2c-0.2,0.3-1,1.4-2.4,3.3c0.6,0.4,1.3,0.9,2,1.3c0.7,0.4,1,1.2,1,2l0,0.4
				l-1.8-0.5c-0.6-0.2-1.1-0.3-1.7-0.3c-1.4,0-3.5,1.5-6.1,4.4s-4,5.2-4,6.7c0,1.3,1.1,2.2,3.4,2.7c1.6,0.4,3.2,0.6,4.9,0.5
				c0.7,0,1.4,0,2.1-0.1c0,0.1,0.1,0.4,0.4,0.7c-1.5,0.6-3.2,0.9-4.8,0.9c-5.8,0-8.7-1.4-8.7-4.2c0-1.7,1.5-4.1,4.4-7.4l3.3-3.7
				l-1.4-0.1c-0.8,0-1.6,0.2-2.3,0.5c-1.1,0.4-2.2,0.8-3.3,1c-0.4,0-0.9-0.1-1.2-0.4c-0.3-0.2-0.6-0.6-0.6-1c0-1,1.1-1.5,3.4-1.5
				c0.2,0,0.6,0,1,0h1c1.7,0.1,3.3-0.3,4.9-1c1.4-0.8,2.6-2,3.4-3.5c0.3-0.6,1.1-2.2,2.4-4.8c0.4,0.1,0.8,0.3,1,0.7
				C431.5,145.7,431.7,146.1,431.7,146.6z"/>
			<path class="st0" d="M447.4,152.1c-1.6,1.6-2.6,2.4-3,2.4c-0.4,0-0.7-0.1-1-0.3c-0.1-0.1-0.4-0.2-0.9-0.5l0.3-0.6
				c0.8-1.3,1.8-2.4,2.9-3.4l1.7-1.8c0.5-0.6,1.3-1,2.1-1.1c0.8,0,1.2,0.4,1.2,1.1S449.4,150,447.4,152.1z M446.5,159.8
				c-0.7-0.8-1.8-1.3-2.8-1.2c-0.7,0-1.5,0.2-2.1,0.5l-2,1.1c0.6,1.1,1.9,1.9,3.2,1.8C444.2,162,445.7,161.2,446.5,159.8
				L446.5,159.8z M450.5,167.2c-0.8,0.9-2.6,1.5-5.5,1.9c-2.1,0.3-4.1,0.5-6.2,0.4c-4.3,0-6.5-1.2-6.5-3.7c0-3.1,2.3-5.7,6.8-7.9
				c1.6-0.8,3.2-1.4,4.9-1.9c1.6,0.4,2.7,0.7,3.3,0.9c1.1,0.4,1.7,1.3,1.7,2.9c0,1.4-0.9,2.4-2.6,3.2c-1.4,0.7-2.9,1-4.5,1
				c-2.4,0-4.1-0.4-5.1-1.1c-1.3,0.6-1.9,1.4-1.9,2.4c0,1.7,1.6,2.6,4.7,2.6c1.2,0,2.5-0.1,4.1-0.2
				C447.2,167.4,449.5,167.2,450.5,167.2L450.5,167.2z"/>
		</g>
	</g>
</g>
</svg>
